<svg width="17px" height="19px" viewBox="0 0 18 20" xmlns="http://www.w3.org/2000/svg" aria-hidden="true">
  <path fill="#8590a6" d="M9.003 0c-2.265 0-6.29 1.364-6.29 7.325V8.52S.55 12.96.55 15.474c0 .665.17 1.025.28 1.025.115 0 .903-.485 1.75-2.073 0 0-.18 2.197 1.903 3.967 0 0-1.77.495-1.77 1.182 0 .686 4.078.43 6.29 0 2.24.425 6.287.687 6.287 0 0-.688-1.768-1.182-1.768-1.182 2.085-1.77 1.905-3.967 1.905-3.967.845 1.588 1.634 2.072 1.746 2.072.11 0 .283-.36.283-1.026 0-2.514-2.166-6.954-2.166-6.954V7.325C15.29 1.365 11.268 0 9.003 0z" fill-rule="evenodd">
  </path>
</svg>