<svg viewBox="0 0 20 19" width="18px" height="17px" aria-hidden="true" xmlns="http://www.w3.org/2000/svg">
  <path fill-rule="evenodd" fill="#8590a6" d="M.224 18.667s4.24-1.825 4.788-2.056C13.03 20.14 20 14.715 20 8.9 20 3.984 15.523 0 10 0S0 3.984 0 8.898c0 1.86.64 3.585 1.737 5.013-.274.834-1.513 4.757-1.513 4.757zM6.167 8.96c.69 0 1.25-.57 1.25-1.27 0-.703-.56-1.272-1.25-1.272s-1.25.57-1.25 1.27c0 .703.56 1.272 1.25 1.272zm7.583 0c.69 0 1.25-.57 1.25-1.27 0-.703-.56-1.272-1.25-1.272s-1.25.57-1.25 1.27c0 .703.56 1.272 1.25 1.272z">
  </path>
</svg>