<svg viewBox="0 0 22 18" width="20px" height="16px" aria-hidden="true" xmlns="http://www.w3.org/2000/svg">
  <g fill="#8590a6">
    <path d="M14.518.06s-.87.644.03 1.71c0 0 6.287-1.19 5.69 6.33 0 0 1.05 1.13 1.674-.31 0 .002 1.44-8.584-7.394-7.73zM4.883 13.17s.038 2.584 3.326 2.584c3.657 0 3.683-2.98 3.683-2.98S12.1 9.67 8.687 9.61c-3.863-.07-3.804 3.56-3.804 3.56zM7.41 14.21c-.668 0-1.214-.447-1.214-.998 0-.55.543-.998 1.215-.998.67 0 1.213.447 1.213.998 0 .55-.54.998-1.212.998z"></path>     <path d="M4.317 4.52C-2.603 10.353.873 14.85.873 14.85c.57 1.01 3.382 3.1 8.596 3.1 5.21 0 9.314-3.628 9.314-6.44 0-2.813-2.918-2.714-2.918-2.714 1.04-1.554.19-2.65.19-2.65-1.684-2.118-5.404-.16-5.407-.158.772-1.717.11-2.797.11-2.797C8.932.66 4.317 4.52 4.317 4.52zm10.448 7.79s-.467 4.16-6.447 4.16c-5.745 0-5.82-3.322-5.842-3.712 0 0-.073-4.423 6.58-4.654 5.94-.204 5.71 4.207 5.71 4.207zM18.65 7.045s1.018-4.37-3.864-3.818c0 0-.628.58.09 1.346 0 0 2.602-.58 2.397 2.598 0 0 .715.885 1.376-.125z">
    </path>
  </g>
</svg>